<svg width="15" height="13" viewBox="0 0 15 13" fill="none" xmlns="http://www.w3.org/2000/svg">
<path d="M12.8039 2.00537C14.7082 3.60498 14.4289 6.22021 13.0832 7.6167L8.61445 12.1616C8.36055 12.4155 8.03047 12.5679 7.675 12.5679C7.29414 12.5679 6.96406 12.4155 6.71016 12.1616L2.2668 7.6167C0.895703 6.22021 0.616406 3.60498 2.5207 2.00537C3.99336 0.76123 6.25312 0.938965 7.675 2.38623C9.07148 0.938965 11.3312 0.76123 12.8039 2.00537ZM12.1945 6.75342C13.134 5.81396 13.3117 4.03662 12.0168 2.91943C11.0266 2.10693 9.50312 2.23389 8.56367 3.19873L7.675 4.11279L6.78633 3.19873C5.82148 2.23389 4.29805 2.10693 3.30781 2.94482C2.01289 4.03662 2.19062 5.81396 3.13008 6.75342L7.57344 11.2983C7.64961 11.3491 7.70039 11.3491 7.75117 11.2983L12.1945 6.75342Z" fill="white"/>
</svg>
