<svg width="14" height="15" viewBox="0 0 14 15" fill="none" xmlns="http://www.w3.org/2000/svg">
<g clip-path="url(#clip0_1097_3670)">
<g clip-path="url(#clip1_1097_3670)">
<path d="M3.0625 0.867432C2.72771 0.867413 2.4056 0.995324 2.16201 1.22499C1.91843 1.45466 1.77183 1.76873 1.75219 2.10293L1.75 2.17993V13.9924H2.625V2.17993C2.62502 2.07277 2.66436 1.96935 2.73555 1.88927C2.80677 1.80919 2.90488 1.75803 3.01131 1.74549L3.0625 1.74243H7.875C7.98215 1.74245 8.08558 1.78179 8.16566 1.85299C8.24574 1.9242 8.29689 2.02232 8.30944 2.12874L8.3125 2.17993V2.61743H6.125C6.01785 2.61745 5.91442 2.65679 5.83434 2.72799C5.75426 2.7992 5.70311 2.89731 5.69056 3.00374L5.6875 3.05493V4.36743H4.375V5.24243H12.6875V4.36743H11.8125V3.05493C11.8125 2.94778 11.7731 2.84435 11.7019 2.76427C11.6307 2.68419 11.5326 2.63303 11.4262 2.62049L11.375 2.61743H9.1875V2.17993C9.18752 1.84515 9.05961 1.52302 8.82994 1.27944C8.60027 1.03587 8.2862 0.88926 7.952 0.869618L7.875 0.867432H3.0625ZM8.75 13.1174C8.63396 13.1174 8.52269 13.1635 8.44065 13.2456C8.35858 13.3276 8.3125 13.4389 8.3125 13.5549C8.3125 13.671 8.35858 13.7822 8.44065 13.8643C8.52269 13.9463 8.63396 13.9924 8.75 13.9924C8.86604 13.9924 8.97731 13.9463 9.05935 13.8643C9.14142 13.7822 9.1875 13.671 9.1875 13.5549C9.1875 13.4389 9.14142 13.3276 9.05935 13.2456C8.97731 13.1635 8.86604 13.1174 8.75 13.1174ZM10.9375 13.1174C10.8215 13.1174 10.7102 13.1635 10.6281 13.2456C10.5461 13.3276 10.5 13.4389 10.5 13.5549C10.5 13.671 10.5461 13.7822 10.6281 13.8643C10.7102 13.9463 10.8215 13.9924 10.9375 13.9924C11.0535 13.9924 11.1648 13.9463 11.2469 13.8643C11.3289 13.7822 11.375 13.671 11.375 13.5549C11.375 13.4389 11.3289 13.3276 11.2469 13.2456C11.1648 13.1635 11.0535 13.1174 10.9375 13.1174ZM6.5625 13.1174C6.44646 13.1174 6.33519 13.1635 6.25315 13.2456C6.17108 13.3276 6.125 13.4389 6.125 13.5549C6.125 13.671 6.17108 13.7822 6.25315 13.8643C6.33519 13.9463 6.44646 13.9924 6.5625 13.9924C6.67854 13.9924 6.78981 13.9463 6.87185 13.8643C6.95392 13.7822 7 13.671 7 13.5549C7 13.4389 6.95392 13.3276 6.87185 13.2456C6.78981 13.1635 6.67854 13.1174 6.5625 13.1174ZM8.75 11.3674C8.63396 11.3674 8.52269 11.4135 8.44065 11.4956C8.35858 11.5776 8.3125 11.6889 8.3125 11.8049C8.3125 11.921 8.35858 12.0322 8.44065 12.1143C8.52269 12.1963 8.63396 12.2424 8.75 12.2424C8.86604 12.2424 8.97731 12.1963 9.05935 12.1143C9.14142 12.0322 9.1875 11.921 9.1875 11.8049C9.1875 11.6889 9.14142 11.5776 9.05935 11.4956C8.97731 11.4135 8.86604 11.3674 8.75 11.3674ZM10.9375 11.3674C10.8215 11.3674 10.7102 11.4135 10.6281 11.4956C10.5461 11.5776 10.5 11.6889 10.5 11.8049C10.5 11.921 10.5461 12.0322 10.6281 12.1143C10.7102 12.1963 10.8215 12.2424 10.9375 12.2424C11.0535 12.2424 11.1648 12.1963 11.2469 12.1143C11.3289 12.0322 11.375 11.921 11.375 11.8049C11.375 11.6889 11.3289 11.5776 11.2469 11.4956C11.1648 11.4135 11.0535 11.3674 10.9375 11.3674ZM6.5625 11.3674C6.44646 11.3674 6.33519 11.4135 6.25315 11.4956C6.17108 11.5776 6.125 11.6889 6.125 11.8049C6.125 11.921 6.17108 12.0322 6.25315 12.1143C6.33519 12.1963 6.44646 12.2424 6.5625 12.2424C6.67854 12.2424 6.78981 12.1963 6.87185 12.1143C6.95392 12.0322 7 11.921 7 11.8049C7 11.6889 6.95392 11.5776 6.87185 11.4956C6.78981 11.4135 6.67854 11.3674 6.5625 11.3674ZM8.75 9.61743C8.63396 9.61743 8.52269 9.66351 8.44065 9.74558C8.35858 9.82762 8.3125 9.9389 8.3125 10.0549C8.3125 10.171 8.35858 10.2822 8.44065 10.3643C8.52269 10.4463 8.63396 10.4924 8.75 10.4924C8.86604 10.4924 8.97731 10.4463 9.05935 10.3643C9.14142 10.2822 9.1875 10.171 9.1875 10.0549C9.1875 9.9389 9.14142 9.82762 9.05935 9.74558C8.97731 9.66351 8.86604 9.61743 8.75 9.61743ZM10.9375 9.61743C10.8215 9.61743 10.7102 9.66351 10.6281 9.74558C10.5461 9.82762 10.5 9.9389 10.5 10.0549C10.5 10.171 10.5461 10.2822 10.6281 10.3643C10.7102 10.4463 10.8215 10.4924 10.9375 10.4924C11.0535 10.4924 11.1648 10.4463 11.2469 10.3643C11.3289 10.2822 11.375 10.171 11.375 10.0549C11.375 9.9389 11.3289 9.82762 11.2469 9.74558C11.1648 9.66351 11.0535 9.61743 10.9375 9.61743ZM6.5625 9.61743C6.44646 9.61743 6.33519 9.66351 6.25315 9.74558C6.17108 9.82762 6.125 9.9389 6.125 10.0549C6.125 10.171 6.17108 10.2822 6.25315 10.3643C6.33519 10.4463 6.44646 10.4924 6.5625 10.4924C6.67854 10.4924 6.78981 10.4463 6.87185 10.3643C6.95392 10.2822 7 10.171 7 10.0549C7 9.9389 6.95392 9.82762 6.87185 9.74558C6.78981 9.66351 6.67854 9.61743 6.5625 9.61743ZM8.75 7.86743C8.63396 7.86743 8.52269 7.91351 8.44065 7.99558C8.35858 8.07762 8.3125 8.1889 8.3125 8.30493C8.3125 8.42097 8.35858 8.53225 8.44065 8.61429C8.52269 8.69635 8.63396 8.74243 8.75 8.74243C8.86604 8.74243 8.97731 8.69635 9.05935 8.61429C9.14142 8.53225 9.1875 8.42097 9.1875 8.30493C9.1875 8.1889 9.14142 8.07762 9.05935 7.99558C8.97731 7.91351 8.86604 7.86743 8.75 7.86743ZM10.9375 7.86743C10.8215 7.86743 10.7102 7.91351 10.6281 7.99558C10.5461 8.07762 10.5 8.1889 10.5 8.30493C10.5 8.42097 10.5461 8.53225 10.6281 8.61429C10.7102 8.69635 10.8215 8.74243 10.9375 8.74243C11.0535 8.74243 11.1648 8.69635 11.2469 8.61429C11.3289 8.53225 11.375 8.42097 11.375 8.30493C11.375 8.1889 11.3289 8.07762 11.2469 7.99558C11.1648 7.91351 11.0535 7.86743 10.9375 7.86743ZM6.5625 7.86743C6.44646 7.86743 6.33519 7.91351 6.25315 7.99558C6.17108 8.07762 6.125 8.1889 6.125 8.30493C6.125 8.42097 6.17108 8.53225 6.25315 8.61429C6.33519 8.69635 6.44646 8.74243 6.5625 8.74243C6.67854 8.74243 6.78981 8.69635 6.87185 8.61429C6.95392 8.53225 7 8.42097 7 8.30493C7 8.1889 6.95392 8.07762 6.87185 7.99558C6.78981 7.91351 6.67854 7.86743 6.5625 7.86743ZM8.75 6.11743C8.63396 6.11743 8.52269 6.16352 8.44065 6.24558C8.35858 6.32762 8.3125 6.4389 8.3125 6.55493C8.3125 6.67097 8.35858 6.78225 8.44065 6.86428C8.52269 6.94635 8.63396 6.99243 8.75 6.99243C8.86604 6.99243 8.97731 6.94635 9.05935 6.86428C9.14142 6.78225 9.1875 6.67097 9.1875 6.55493C9.1875 6.4389 9.14142 6.32762 9.05935 6.24558C8.97731 6.16352 8.86604 6.11743 8.75 6.11743ZM6.5625 6.11743C6.44646 6.11743 6.33519 6.16352 6.25315 6.24558C6.17108 6.32762 6.125 6.4389 6.125 6.55493C6.125 6.67097 6.17108 6.78225 6.25315 6.86428C6.33519 6.94635 6.44646 6.99243 6.5625 6.99243C6.67854 6.99243 6.78981 6.94635 6.87185 6.86428C6.95392 6.78225 7 6.67097 7 6.55493C7 6.4389 6.95392 6.32762 6.87185 6.24558C6.78981 6.16352 6.67854 6.11743 6.5625 6.11743ZM10.9375 6.11743C10.8215 6.11743 10.7102 6.16352 10.6281 6.24558C10.5461 6.32762 10.5 6.4389 10.5 6.55493C10.5 6.67097 10.5461 6.78225 10.6281 6.86428C10.7102 6.94635 10.8215 6.99243 10.9375 6.99243C11.0535 6.99243 11.1648 6.94635 11.2469 6.86428C11.3289 6.78225 11.375 6.67097 11.375 6.55493C11.375 6.4389 11.3289 6.32762 11.2469 6.24558C11.1648 6.16352 11.0535 6.11743 10.9375 6.11743ZM6.5625 3.49243H10.9375V4.36743H6.5625V3.49243Z" fill="#5C727D"/>
</g>
</g>
<defs>
<clipPath id="clip0_1097_3670">
<rect width="14" height="14" fill="white" transform="translate(0 0.429932)"/>
</clipPath>
<clipPath id="clip1_1097_3670">
<rect width="14" height="14" fill="white" transform="translate(0 0.429932)"/>
</clipPath>
</defs>
</svg>
