<svg width="15" height="18" viewBox="0 0 15 18" fill="none" xmlns="http://www.w3.org/2000/svg">
<path d="M10.8962 16.4242C10.9593 16.4271 11.0196 16.43 11.0827 16.43C11.7572 16.43 12.3198 16.186 12.7618 15.7067C12.7647 15.7038 12.7704 15.6981 12.7733 15.6952C12.9311 15.5058 13.1091 15.3335 13.2985 15.1527C13.4277 15.0293 13.5597 14.903 13.6831 14.771C14.2715 14.1567 14.2687 13.3789 13.6774 12.7876L12.0414 11.1516C11.7601 10.8589 11.4243 10.7039 11.0684 10.7039C10.7153 10.7039 10.3766 10.856 10.0867 11.1459L9.11948 12.1131C9.03337 12.0644 8.9444 12.0213 8.85829 11.9782C8.74922 11.9237 8.64876 11.872 8.55979 11.8175C7.67289 11.2549 6.86922 10.5202 6.1 9.57586C5.71252 9.08792 5.45707 8.68035 5.27625 8.2613C5.52882 8.03168 5.76418 7.79345 5.99093 7.56096C6.07417 7.47773 6.1574 7.39162 6.24351 7.30551C6.85774 6.69128 6.85774 5.93067 6.24351 5.31931L5.43124 4.50704C5.33652 4.41232 5.24467 4.3176 5.15282 4.22576C4.972 4.04206 4.78544 3.84976 4.59887 3.67754C4.31759 3.39626 3.98464 3.24988 3.6316 3.24988C3.28144 3.24988 2.94275 3.39626 2.64999 3.67754L1.63105 4.6936C1.25792 5.06673 1.04553 5.52023 0.999604 6.04548C0.94794 6.69989 1.06849 7.39449 1.37847 8.23259C1.8578 9.52707 2.57823 10.7297 3.64595 12.0156C4.94617 13.5655 6.50757 14.7911 8.29286 15.655C8.9731 15.9793 9.88296 16.3582 10.8962 16.4242ZM4.18843 11.5649C3.17237 10.3422 2.49212 9.2056 2.0415 7.98863C1.76308 7.2395 1.65976 6.65684 1.70281 6.10289C1.73438 5.74411 1.87215 5.4456 2.13047 5.19015L3.14366 4.17696C3.29866 4.02771 3.468 3.95021 3.63447 3.95021C3.79808 3.95021 3.95881 4.02771 4.1138 4.17983C4.29463 4.34918 4.46971 4.52713 4.65341 4.71369C4.74525 4.80841 4.83997 4.906 4.93756 5.00072L5.74983 5.81299C6.08278 6.14594 6.08278 6.47314 5.74983 6.80609C5.66373 6.8922 5.57762 6.97831 5.49438 7.06441C5.2418 7.31986 5.00644 7.56096 4.74525 7.79345C4.73951 7.79919 4.73664 7.80206 4.7309 7.8078C4.49841 8.04029 4.53286 8.26417 4.59026 8.43064C4.59313 8.43925 4.596 8.44499 4.59887 8.4536C4.8084 8.95876 5.10403 9.43809 5.55753 10.0121C6.37554 11.0196 7.23661 11.8032 8.18953 12.4088C8.30721 12.4834 8.43063 12.5465 8.55118 12.6068C8.66024 12.6614 8.7607 12.713 8.84968 12.7676C8.86116 12.7733 8.86977 12.779 8.88125 12.7848C8.9731 12.8307 9.06208 12.8537 9.15392 12.8537C9.38067 12.8537 9.52418 12.7102 9.57011 12.6614L10.589 11.6424C10.744 11.4874 10.9105 11.4071 11.0741 11.4071C11.275 11.4071 11.4386 11.5334 11.5448 11.6424L13.1866 13.2842C13.5884 13.686 13.4047 14.0477 13.178 14.2859C13.0632 14.4093 12.9426 14.5241 12.8163 14.6476C12.624 14.8313 12.426 15.0236 12.2452 15.2388C11.9352 15.5718 11.5678 15.7268 11.0885 15.7268C11.0425 15.7268 10.9937 15.7239 10.9478 15.721C10.0552 15.6636 9.22855 15.3163 8.60571 15.0207C6.90654 14.2027 5.42263 13.0402 4.18843 11.5649Z" fill="#1E1F1E"/>
<path d="M8.67459 4.99206C8.48228 4.96048 8.30146 5.08964 8.26989 5.27908C8.23832 5.47138 8.36748 5.65221 8.55691 5.68378C9.34622 5.81868 10.0638 6.19181 10.6378 6.76299C11.209 7.33416 11.5821 8.05459 11.717 8.8439C11.7457 9.01612 11.895 9.13667 12.0643 9.13667C12.0844 9.13667 12.1045 9.1338 12.1246 9.13093C12.3169 9.09935 12.4461 8.91566 12.4116 8.72622C12.2538 7.7934 11.8117 6.94094 11.1372 6.26644C10.457 5.58906 9.60741 5.14992 8.67459 4.99206Z" fill="#1E1F1E"/>
<path d="M14.6188 9.01612C14.6389 9.01612 14.659 9.01325 14.6791 9.01038C14.8714 8.9788 15.0006 8.79511 14.9661 8.60567C14.7049 7.06149 13.9759 5.65795 12.8594 4.54143C11.74 3.42491 10.3364 2.69587 8.79227 2.43468C8.59996 2.40311 8.41914 2.53227 8.38756 2.72171C8.35599 2.91401 8.48515 3.09484 8.67459 3.12641C10.0724 3.36464 11.3468 4.02479 12.36 5.03798C13.3732 6.05117 14.0333 7.32555 14.2715 8.72335C14.3002 8.89557 14.4495 9.01612 14.6188 9.01612Z" fill="#1E1F1E"/>
</svg>
