<svg width="13" height="12" viewBox="0 0 13 12" fill="none" xmlns="http://www.w3.org/2000/svg">
<path d="M11.5399 4.63623C11.9716 4.63623 12.3524 5.01709 12.3524 5.44873V6.26123C12.3524 6.71826 11.9716 7.07373 11.5399 7.07373H7.88368V10.73C7.88368 11.187 7.50282 11.5425 7.07118 11.5425H6.25868C5.80165 11.5425 5.44618 11.187 5.44618 10.73V7.07373H1.78993C1.3329 7.07373 0.977434 6.71826 0.977434 6.26123V5.44873C0.977434 5.01709 1.3329 4.63623 1.78993 4.63623H5.44618V0.97998C5.44618 0.54834 5.80165 0.16748 6.25868 0.16748H7.07118C7.50282 0.16748 7.88368 0.54834 7.88368 0.97998V4.63623H11.5399Z" fill="white"/>
</svg>
