<svg width="14" height="10" viewBox="0 0 14 10" fill="none" xmlns="http://www.w3.org/2000/svg">
<path d="M12.7012 0.179932C13.3613 0.179932 13.9199 0.738525 13.9199 1.39868V8.71118C13.9199 9.39673 13.3613 9.92993 12.7012 9.92993H2.13867C1.45312 9.92993 0.919922 9.39673 0.919922 8.71118V1.39868C0.919922 0.738525 1.45312 0.179932 2.13867 0.179932H12.7012ZM12.7012 1.39868H2.13867V2.4397C2.69727 2.92212 3.61133 3.63306 5.54102 5.15649C5.97266 5.48657 6.81055 6.29907 7.41992 6.27368C8.00391 6.29907 8.8418 5.48657 9.27344 5.15649C11.2031 3.63306 12.1172 2.92212 12.7012 2.4397V1.39868ZM2.13867 8.71118H12.7012V4.01392C12.1172 4.47095 11.2793 5.1311 10.0352 6.12134C9.45117 6.55298 8.48633 7.51782 7.41992 7.49243C6.32812 7.51782 5.33789 6.55298 4.7793 6.12134C3.53516 5.1311 2.69727 4.47095 2.13867 4.01392V8.71118Z" fill="#212623"/>
</svg>
