<svg width="13" height="13" viewBox="0 0 13 13" fill="none" xmlns="http://www.w3.org/2000/svg">
<path d="M10.5884 2.54321C11.6548 3.60962 12.3149 5.0061 12.3149 6.52954C12.3149 9.6272 9.7251 12.1663 6.60205 12.1663C5.6626 12.1663 4.74854 11.9124 3.91064 11.4807L0.939941 12.2424L1.72705 9.32251C1.24463 8.48462 0.965332 7.51978 0.965332 6.50415C0.965332 3.40649 3.50439 0.867432 6.60205 0.867432C8.12549 0.867432 9.54736 1.47681 10.5884 2.54321ZM6.60205 11.2014C9.19189 11.2014 11.3501 9.09399 11.3501 6.52954C11.3501 5.26001 10.8169 4.09204 9.92822 3.20337C9.03955 2.3147 7.87158 1.83228 6.62744 1.83228C4.0376 1.83228 1.93018 3.9397 1.93018 6.50415C1.93018 7.39282 2.18408 8.2561 2.64111 9.01782L2.76807 9.19556L2.28564 10.9221L4.06299 10.4397L4.21533 10.5413C4.95166 10.9729 5.76416 11.2014 6.60205 11.2014ZM9.19189 7.69751C9.31885 7.77368 9.42041 7.79907 9.4458 7.87524C9.49658 7.92603 9.49658 8.20532 9.36963 8.5354C9.24268 8.86548 8.68408 9.17017 8.43018 9.19556C7.97314 9.27173 7.61768 9.24634 6.729 8.84009C5.30713 8.23071 4.39307 6.80884 4.31689 6.73267C4.24072 6.6311 3.7583 5.97095 3.7583 5.26001C3.7583 4.57446 4.11377 4.24438 4.24072 4.09204C4.36768 3.9397 4.52002 3.91431 4.62158 3.91431C4.69775 3.91431 4.79932 3.91431 4.87549 3.91431C4.97705 3.91431 5.07861 3.88892 5.20557 4.16821C5.30713 4.44751 5.61182 5.13306 5.63721 5.20923C5.6626 5.2854 5.68799 5.36157 5.63721 5.46313C5.3833 5.99634 5.07861 5.97095 5.23096 6.22485C5.78955 7.16431 6.32275 7.49438 7.16064 7.90063C7.2876 7.97681 7.36377 7.95142 7.46533 7.87524C7.5415 7.77368 7.8208 7.4436 7.89697 7.31665C7.99854 7.16431 8.1001 7.1897 8.22705 7.24048C8.354 7.29126 9.03955 7.62134 9.19189 7.69751Z" fill="#161918"/>
</svg>
