<svg width="1431" height="960" viewBox="0 0 1431 960" fill="none" xmlns="http://www.w3.org/2000/svg">
<g clip-path="url(#clip0_1003_2488)">
<rect width="1431" height="960" fill="white"/>
<path d="M140.88 212.68L186 340.04C199.44 376.52 208.293 397.853 212.56 404.04C216.613 409.587 222.053 412.893 228.88 413.96C229.52 414.173 230.587 414.28 232.08 414.28L231.12 421L152.72 422.28L153.68 416.52C162.853 415.667 169.36 413.96 173.2 411.4C177.04 408.84 178.96 404.573 178.96 398.6C178.96 391.56 173.947 374.493 163.92 347.4C159.867 349.32 147.6 350.28 127.12 350.28H89.04C80.5067 373.747 76.24 389.853 76.24 398.6C76.88 405 78.5867 409.053 81.36 410.76C84.1333 412.467 90.1067 413.64 99.28 414.28L98.64 421L31.76 422.28L32.4 416.52C41.36 415.027 48.2933 410.227 53.2 402.12C57.4667 394.653 65.4667 375.88 77.2 345.8C107.067 267.293 122.107 224.627 122.32 217.8L140.88 212.68ZM93.52 338.12H160.4C148.453 303.987 138.107 270.707 129.36 238.28H128.08C123.173 254.707 111.653 287.987 93.52 338.12ZM342.798 408.84H350.478C369.038 408.84 380.984 406.28 386.318 401.16C391.651 396.253 395.598 384.413 398.158 365.64H405.518L402.318 421H336.078C292.771 421 266.744 421.427 257.998 422.28L250.638 422.6L251.278 416.84C263.864 415.133 271.544 410.547 274.318 403.08C276.878 395.4 278.158 376.627 278.158 346.76V296.84C278.158 262.707 277.091 242.44 274.958 236.04C273.038 229.427 268.558 225.693 261.518 224.84C259.171 224.627 255.651 224.307 250.958 223.88L252.238 216.52C287.651 216.52 310.371 215.987 320.398 214.92L327.118 214.6L326.158 221C314.851 222.92 307.598 227.613 304.398 235.08C301.198 242.547 299.598 258.44 299.598 282.76V348.36L300.558 401.48L302.158 403.4C307.704 407.027 321.251 408.84 342.798 408.84ZM513.728 281.48C518.634 277 526.741 269.107 538.048 257.8C547.008 249.267 553.088 242.867 556.288 238.6C559.488 234.333 561.088 231.453 561.088 229.96C561.088 226.973 557.781 225.053 551.168 224.2L552.448 216.52C586.794 216.52 607.701 215.987 615.168 214.92L620.288 214.6L619.328 220.68C606.314 222.173 593.728 227.4 581.568 236.36C569.834 244.68 545.621 266.227 508.928 301L501.888 307.72L525.248 332.68C559.168 368.947 581.568 391.773 592.448 401.16C602.474 410.333 611.754 414.92 620.288 414.92H621.568L620.928 421.64C611.114 423.347 602.048 424.2 593.728 424.2C588.821 424.2 581.354 419.507 571.328 410.12C561.088 400.733 538.474 378.12 503.488 342.28L477.568 315.72C493.781 300.36 505.834 288.947 513.728 281.48ZM487.808 413C489.514 413.427 493.034 413.853 498.368 414.28L497.408 421L421.888 422.28L423.168 416.52C435.968 415.027 443.754 410.44 446.528 402.76C449.088 395.08 450.368 375.987 450.368 345.48V297.8C450.368 263.453 449.408 242.973 447.488 236.36C445.568 229.96 441.301 226.12 434.688 224.84C432.128 224.627 428.288 224.307 423.168 223.88L424.448 216.52C460.074 216.52 483.008 215.987 493.248 214.92L499.968 214.6L499.008 220.68C486.848 222.387 479.061 227.4 475.648 235.72C473.301 241.053 472.128 251.293 472.128 266.44C471.914 270.493 471.808 279.027 471.808 292.04V338.76C471.808 373.533 472.768 394.333 474.688 401.16C476.821 407.773 481.194 411.72 487.808 413ZM756.323 223.88L757.603 216.52C792.376 216.52 813.496 215.987 820.963 214.92L826.403 214.6L825.123 220.68C818.296 221.747 813.603 223.56 811.043 226.12C808.696 228.467 807.523 232.52 807.523 238.28C807.523 246.813 812.109 264.84 821.283 292.36L854.563 394.76H855.843C859.256 382.173 869.709 349.96 887.203 298.12C897.229 267.4 902.243 248.307 902.243 240.84C902.243 234.44 900.323 230.173 896.483 228.04C892.856 225.693 885.816 224.307 875.363 223.88L876.003 216.52C906.936 216.52 928.269 215.987 940.003 214.92L948.323 214.6L947.043 221C936.803 222.92 928.696 228.787 922.723 238.6C916.536 248.627 909.496 266.333 901.603 291.72L861.283 421L842.083 421.96L790.883 269.32H789.603L729.763 420.68L711.203 421.96L672.483 297.48C660.749 261.64 652.963 240.627 649.123 234.44C644.856 227.613 637.283 224.093 626.403 223.88L627.683 216.52C663.309 216.52 686.243 215.987 696.483 214.92L703.523 214.6L702.243 220.68C693.923 221.747 688.056 223.667 684.643 226.44C681.443 229.213 679.843 233.587 679.843 239.56C679.843 247.24 684.323 264.84 693.283 292.36C707.789 338.44 718.349 372.573 724.963 394.76H726.243L784.483 248.2C781.283 239.24 778.083 233.16 774.883 229.96C771.469 226.973 765.283 224.947 756.323 223.88ZM1067.44 212.68L1112.56 340.04C1126 376.52 1134.86 397.853 1139.12 404.04C1143.18 409.587 1148.62 412.893 1155.44 413.96C1156.08 414.173 1157.15 414.28 1158.64 414.28L1157.68 421L1079.28 422.28L1080.24 416.52C1089.42 415.667 1095.92 413.96 1099.76 411.4C1103.6 408.84 1105.52 404.573 1105.52 398.6C1105.52 391.56 1100.51 374.493 1090.48 347.4C1086.43 349.32 1074.16 350.28 1053.68 350.28H1015.6C1007.07 373.747 1002.8 389.853 1002.8 398.6C1003.44 405 1005.15 409.053 1007.92 410.76C1010.7 412.467 1016.67 413.64 1025.84 414.28L1025.2 421L958.323 422.28L958.963 416.52C967.923 415.027 974.856 410.227 979.763 402.12C984.029 394.653 992.029 375.88 1003.76 345.8C1033.63 267.293 1048.67 224.627 1048.88 217.8L1067.44 212.68ZM1020.08 338.12H1086.96C1075.02 303.987 1064.67 270.707 1055.92 238.28H1054.64C1049.74 254.707 1038.22 287.987 1020.08 338.12ZM1261.36 395.72C1262.85 384.627 1263.6 367.56 1263.6 344.52V340.36L1235.76 297.16C1212.51 261.32 1197.89 240.307 1191.92 234.12C1186.59 228.787 1180.08 225.587 1172.4 224.52L1169.84 224.2L1171.12 216.52C1206.53 216.52 1229.36 215.987 1239.6 214.92L1246.64 214.6L1245.68 220.68C1230.96 222.173 1223.6 226.333 1223.6 233.16C1223.6 239.347 1235.01 259.187 1257.84 292.68L1278 322.44L1293.68 298.44C1307.76 276.68 1317.79 260.893 1323.76 251.08C1328.88 242.333 1331.44 236.147 1331.44 232.52C1331.44 229.32 1329.84 227.187 1326.64 226.12C1323.44 224.84 1317.79 224.093 1309.68 223.88L1310.64 216.52C1340.29 216.52 1360.13 215.987 1370.16 214.92L1377.2 214.6L1376.24 221C1366.43 222.92 1358.11 227.827 1351.28 235.72C1344.24 243.4 1331.01 261.96 1311.6 291.4L1284.72 332.68V339.08C1284.72 373.853 1285.79 394.547 1287.92 401.16C1289.84 407.773 1294.21 411.72 1301.04 413C1302.75 413.427 1306.37 413.853 1311.92 414.28L1310.96 421L1234.48 422.28L1235.44 416.52C1240.99 415.453 1244.51 414.707 1246 414.28C1247.71 413.853 1249.95 412.893 1252.72 411.4C1255.49 409.907 1257.41 407.987 1258.48 405.64C1259.55 403.293 1260.51 399.987 1261.36 395.72Z" fill="black"/>
<path d="M447.074 553.412V560.077C447.074 576.776 447.221 587.274 447.514 591.571C447.807 595.868 448.539 598.725 449.711 600.141C451.615 602.143 454.521 603.217 458.427 603.363L459.086 604.169V605.341L458.427 606C457.401 606.098 456.718 606.146 456.376 606.146C453.642 606.146 451.005 605.976 448.466 605.634C446.22 605.341 444.438 605.194 443.119 605.194C442.338 605.194 440.702 605.341 438.212 605.634C435.429 605.976 432.816 606.146 430.375 606.146C429.887 606.146 429.057 606.073 427.885 605.927L427.372 605.121V604.096L428.031 603.363C431.742 603.363 434.306 601.874 435.722 598.896C436.894 596.063 437.479 583.197 437.479 560.297V541.327C437.479 529.315 437.284 520.893 436.894 516.059C436.503 511.176 435.771 507.904 434.696 506.244C433.427 504.34 430.497 503.168 425.907 502.729L425.395 501.996V500.824L425.98 500.092C426.811 500.043 427.396 500.019 427.738 500.019C428.178 500.019 429.008 500.067 430.229 500.165C432.377 500.312 435.307 500.385 439.018 500.385C443.754 500.385 452.152 500.116 464.213 499.579C465.58 499.53 467.021 499.506 468.534 499.506C477.421 499.506 484.11 500.727 488.603 503.168C491.874 504.926 494.413 507.538 496.22 511.005C498.026 514.423 498.93 518.354 498.93 522.797C498.93 530.463 496.146 536.884 490.58 542.06C487.748 544.647 484.208 546.894 479.96 548.798C475.712 550.653 471.195 551.972 466.41 552.753C469.975 556.171 475.37 563.153 482.597 573.7C489.286 583.466 493.925 589.984 496.513 593.256C499.101 596.479 501.762 599.018 504.496 600.873C506.742 602.484 509.11 603.314 511.601 603.363L512.26 604.096V605.341L511.527 606C509.721 606.098 507.548 606.146 505.009 606.146C498.954 606.146 494.877 605.463 492.777 604.096C490.824 602.875 488.993 601.068 487.284 598.676C485.575 596.283 480.595 588.715 472.343 575.971C465.995 566.107 462.235 560.321 461.063 558.612C459.892 556.854 458.988 555.683 458.354 555.097C457.084 553.925 454.374 553.339 450.224 553.339C449.687 553.339 448.637 553.363 447.074 553.412ZM447.074 548.944C450.883 549.091 453.422 549.164 454.691 549.164C462.309 549.164 468.754 547.968 474.027 545.575C478.471 543.573 481.889 540.717 484.281 537.006C486.674 533.295 487.87 528.998 487.87 524.115C487.87 510.492 479.96 503.681 464.14 503.681C455.839 503.681 450.932 504.315 449.418 505.585C447.855 506.854 447.074 511.298 447.074 518.915V523.236V541.181V548.944ZM570.707 563.446H531.815C528.056 563.446 525.834 563.739 525.15 564.325C524.369 565.106 523.979 566.767 523.979 569.306C523.979 576.581 526.322 583.222 531.01 589.228C536.771 596.552 544.462 600.214 554.081 600.214C559.208 600.214 563.31 599.311 566.386 597.504C566.972 597.162 568.29 596.186 570.341 594.574L571.22 594.428L572.099 595.087L572.245 596.039C569.315 599.994 566.898 602.997 564.994 605.048L564.042 605.78C559.94 607.099 555.619 607.758 551.078 607.758C540.531 607.758 532.182 604.755 526.029 598.749C519.145 592.06 515.702 583.026 515.702 571.649C515.702 560.077 519.193 550.873 526.176 544.037C531.645 538.666 538.871 535.98 547.855 535.98C557.377 535.98 564.237 539.105 568.437 545.355C570.927 549.018 572.172 553.168 572.172 557.807C572.172 558.93 572.025 560.395 571.732 562.201L570.707 563.446ZM524.931 558.905C530.155 559.296 536.259 559.491 543.241 559.491C554.618 559.491 560.673 559.32 561.405 558.979C562.333 558.539 562.797 557.611 562.797 556.195C562.797 551.557 561.186 547.748 557.963 544.77C554.789 541.742 550.712 540.229 545.731 540.229C540.458 540.229 535.966 541.889 532.255 545.209C528.544 548.529 526.103 553.095 524.931 558.905ZM626.151 597.504C619.218 603.852 611.625 607.025 603.373 607.025C597.758 607.025 593.339 605.634 590.116 602.851C586.356 599.579 584.477 595.062 584.477 589.301C584.477 583.1 586.771 578.266 591.361 574.799C594.193 572.602 600.175 570.185 609.306 567.548C617.997 565.058 623.026 563.251 624.394 562.128C625.126 561.591 625.565 561.005 625.712 560.37C625.858 559.687 625.932 558.051 625.932 555.463C625.932 550.189 625.004 546.405 623.148 544.11C620.854 541.376 617.265 540.009 612.382 540.009C609.647 540.009 606.791 540.546 603.812 541.62C600.883 542.694 598.637 543.988 597.074 545.502C595.121 547.406 593.607 550.482 592.533 554.73L591.874 555.316L590.409 555.097L589.823 554.291C590.312 550.434 590.604 547.992 590.702 546.967C591.044 543.891 591.288 541.815 591.435 540.741L592.094 539.862C597.855 537.323 604.643 536.054 612.455 536.054C621.732 536.054 627.982 537.763 631.205 541.181C633.891 544.11 635.233 549.091 635.233 556.122L635.014 569.013V584.833C635.014 590.595 635.185 594.574 635.526 596.771C635.917 598.92 636.698 600.556 637.87 601.679C638.7 602.411 639.311 602.826 639.701 602.924C640.141 603.021 642.167 603.266 645.78 603.656L646.22 604.169V605.414L645.78 606C644.608 606.098 643.778 606.146 643.29 606.146C642.655 606.146 641.361 606.073 639.408 605.927C637.309 605.78 635.917 605.707 635.233 605.707L629.081 606L628.129 605.487C626.762 603.388 626.103 600.727 626.151 597.504ZM625.858 593.183V566.522C621.415 568.183 616.508 569.916 611.137 571.723C604.789 573.871 600.517 575.873 598.319 577.729C595.341 580.219 593.852 583.563 593.852 587.763C593.852 591.815 595.146 595.136 597.733 597.724C600.37 600.312 603.69 601.605 607.694 601.605C613.749 601.605 619.804 598.798 625.858 593.183ZM654.643 605.341V604.169L655.375 603.583C657.719 603.144 659.306 602.533 660.136 601.752C660.966 600.971 661.601 599.53 662.04 597.431C662.577 594.745 662.846 586.005 662.846 571.21V537.299L662.919 512.543C662.919 505.951 662.528 501.85 661.747 500.238C661.161 499.018 659.892 498.407 657.938 498.407C657.157 498.407 656.034 498.529 654.569 498.773L653.91 498.407L653.544 497.382L653.983 496.576C658.085 494.428 662.943 492.353 668.559 490.351C670.951 491.376 672.147 494.354 672.147 499.286L672.001 509.467V516.352V521.552V537.079V570.771C672.001 586.347 672.465 595.453 673.393 598.09C674.613 601.459 677.445 603.241 681.889 603.437L682.548 603.949V605.268L681.815 606C680.741 606.098 679.96 606.146 679.472 606.146C678.251 606.146 676.615 605.976 674.564 605.634C672.465 605.292 670.78 605.121 669.511 605.121C667.851 605.121 665.385 605.365 662.113 605.854C660.746 606.049 659.477 606.146 658.305 606.146C657.621 606.146 656.596 606.098 655.229 606L654.643 605.341ZM725.541 605.194V603.949L726.347 603.363C729.032 603.168 730.961 602.558 732.133 601.532C733.305 600.507 734.11 598.749 734.55 596.259C735.282 592.353 735.648 581.269 735.648 563.007V544.403L735.355 526.166C735.209 515.766 734.574 509.247 733.451 506.61C732.865 505.243 731.962 504.315 730.741 503.827C729.569 503.29 727.396 502.924 724.223 502.729L723.49 502.069V500.824L724.076 500.238C725.102 500.092 725.932 500.019 726.566 500.019C727.152 500.019 728.983 500.165 732.06 500.458C735.575 500.8 740.336 500.971 746.342 500.971C753.861 500.971 765.751 500.702 782.011 500.165C783.866 500.116 785.502 500.092 786.918 500.092C788.09 500.092 789.457 500.116 791.02 500.165L792.265 501.41L792.484 505.878C792.729 510.028 792.948 514.374 793.144 518.915L792.631 519.794L791.239 519.94L790.067 519.354C789.384 513.837 787.382 510.102 784.062 508.148C780.741 506.195 774.711 505.219 765.971 505.219C755.277 505.219 749.052 505.854 747.294 507.123C746.317 507.807 745.731 509.467 745.536 512.104C745.341 514.74 745.243 522.895 745.243 536.566V544.037C747.538 544.232 750.541 544.33 754.252 544.33C765.531 544.33 772.343 543.866 774.687 542.938C777.079 542.011 778.593 539.252 779.228 534.662L780.033 533.93H781.864L782.597 534.735C782.401 536.444 782.133 538.251 781.791 540.155C781.449 542.06 781.278 544.184 781.278 546.527C781.278 547.357 781.498 549.726 781.938 553.632C782.23 556.562 782.377 558.466 782.377 559.345C782.377 559.784 782.353 560.492 782.304 561.469L781.425 562.201H780.106L779.228 561.469C779.179 561.029 779.032 560.028 778.788 558.466C778.446 556.22 777.982 554.608 777.396 553.632C776.811 552.655 775.858 551.825 774.54 551.142C771.903 549.774 766.312 549.091 757.768 549.091C751.615 549.091 747.855 549.481 746.488 550.263C745.902 550.604 745.536 551.166 745.39 551.947C745.292 552.68 745.243 554.828 745.243 558.393V569.965V577.436C745.634 586.908 745.902 592.523 746.049 594.281C746.244 595.99 746.659 597.235 747.294 598.017C748.075 599.042 749.857 599.774 752.641 600.214C755.473 600.653 759.794 600.873 765.604 600.873C773.563 600.873 779.691 600.312 783.988 599.188C789.164 597.87 793.07 593.524 795.707 586.151L796.586 585.565L798.051 585.932L798.637 586.884C798.344 588.739 797.758 591.376 796.879 594.794C796.195 597.724 795.438 601.19 794.608 605.194L793.656 606.073C792.973 606.073 792.387 606.073 791.898 606.073L788.383 606.146C786.967 606.146 785.111 606.098 782.816 606C775.004 605.658 763.749 605.487 749.052 605.487C741.19 605.487 735.6 605.609 732.279 605.854C730.375 606 729.179 606.073 728.69 606.073C728.056 606.073 727.201 606.049 726.127 606L725.541 605.194ZM810.648 603.51C810.648 601.898 810.624 599.726 810.575 596.991C810.526 594.501 810.502 592.108 810.502 589.813L811.088 589.008L812.553 588.935L813.212 589.594C813.798 592.621 814.457 594.696 815.189 595.819C816.264 597.528 818.754 598.993 822.66 600.214C826.615 601.435 830.692 602.045 834.892 602.045C845.634 602.045 851.005 598.017 851.005 589.96C851.005 586.493 849.979 583.881 847.929 582.123C845.878 580.365 841.215 578.046 833.939 575.165C828.617 573.114 825.077 571.649 823.319 570.771C821.562 569.892 819.926 568.842 818.412 567.621C814.896 564.74 813.139 560.858 813.139 555.976C813.139 550.214 815.409 545.526 819.95 541.913C824.54 538.251 830.424 536.42 837.602 536.42C844.438 536.42 849.882 537.323 853.935 539.13L854.374 539.862C854.423 542.304 854.521 545.697 854.667 550.043V553.046L854.154 553.852L852.689 553.998L851.884 553.266C851.688 549.75 851.005 547.431 849.833 546.308C848.368 544.892 846.073 543.744 842.948 542.865C839.872 541.938 836.625 541.474 833.207 541.474C828.91 541.474 825.59 542.401 823.246 544.257C820.951 546.063 819.804 548.651 819.804 552.021C819.804 556.024 822.221 559.296 827.055 561.835C829.057 562.909 834.77 565.229 844.193 568.793C849.809 570.893 853.69 573.529 855.839 576.703C857.499 579.193 858.329 582.123 858.329 585.492C858.329 592.621 855.326 598.163 849.32 602.118C844.193 605.487 838.285 607.172 831.596 607.172C823.539 607.172 816.776 606.244 811.308 604.389L810.648 603.51ZM878.031 542.646C875.688 542.548 873.93 542.499 872.758 542.499C871.439 542.499 869.242 542.572 866.166 542.719L865.946 541.84C866.581 540.668 867.24 539.447 867.924 538.178L868.729 537.665C872.392 537.763 875.492 537.812 878.031 537.812C878.08 535.761 878.104 534.271 878.104 533.344C878.104 530.414 877.934 526.752 877.592 522.357C880.668 520.893 883.671 519.428 886.601 517.963L887.772 518.695C887.724 521.527 887.626 524.97 887.479 529.022L887.187 537.812C892.021 537.763 895.634 537.738 898.026 537.738C902.03 537.738 904.984 537.689 906.889 537.592L907.328 538.324C906.547 539.643 905.814 540.961 905.131 542.279L904.179 542.865L887.187 542.499V570.917C887.187 583.075 887.382 590.521 887.772 593.256C888.7 599.555 892.094 602.704 897.953 602.704C900.297 602.704 903.324 601.898 907.035 600.287L908.061 600.507L908.72 601.605L908.354 602.484C903.373 605.756 897.904 607.392 891.947 607.392C884.672 607.392 880.253 604.706 878.69 599.335C878.007 596.796 877.665 592.353 877.665 586.005C877.665 585.272 877.787 580.341 878.031 571.21V542.646ZM958.964 597.504C952.03 603.852 944.438 607.025 936.186 607.025C930.57 607.025 926.151 605.634 922.929 602.851C919.169 599.579 917.289 595.062 917.289 589.301C917.289 583.1 919.584 578.266 924.174 574.799C927.006 572.602 932.987 570.185 942.118 567.548C950.81 565.058 955.839 563.251 957.206 562.128C957.938 561.591 958.378 561.005 958.524 560.37C958.671 559.687 958.744 558.051 958.744 555.463C958.744 550.189 957.816 546.405 955.961 544.11C953.666 541.376 950.077 540.009 945.194 540.009C942.46 540.009 939.604 540.546 936.625 541.62C933.695 542.694 931.449 543.988 929.887 545.502C927.934 547.406 926.42 550.482 925.346 554.73L924.687 555.316L923.222 555.097L922.636 554.291C923.124 550.434 923.417 547.992 923.515 546.967C923.856 543.891 924.101 541.815 924.247 540.741L924.906 539.862C930.668 537.323 937.455 536.054 945.268 536.054C954.545 536.054 960.795 537.763 964.018 541.181C966.703 544.11 968.046 549.091 968.046 556.122L967.826 569.013V584.833C967.826 590.595 967.997 594.574 968.339 596.771C968.729 598.92 969.511 600.556 970.683 601.679C971.513 602.411 972.123 602.826 972.514 602.924C972.953 603.021 974.979 603.266 978.593 603.656L979.032 604.169V605.414L978.593 606C977.421 606.098 976.591 606.146 976.103 606.146C975.468 606.146 974.174 606.073 972.221 605.927C970.121 605.78 968.729 605.707 968.046 605.707L961.894 606L960.941 605.487C959.574 603.388 958.915 600.727 958.964 597.504ZM958.671 593.183V566.522C954.228 568.183 949.32 569.916 943.949 571.723C937.602 573.871 933.329 575.873 931.132 577.729C928.153 580.219 926.664 583.563 926.664 587.763C926.664 591.815 927.958 595.136 930.546 597.724C933.183 600.312 936.503 601.605 940.507 601.605C946.562 601.605 952.616 598.798 958.671 593.183ZM993.168 542.646C990.824 542.548 989.066 542.499 987.895 542.499C986.576 542.499 984.379 542.572 981.303 542.719L981.083 541.84C981.718 540.668 982.377 539.447 983.061 538.178L983.866 537.665C987.528 537.763 990.629 537.812 993.168 537.812C993.217 535.761 993.241 534.271 993.241 533.344C993.241 530.414 993.07 526.752 992.729 522.357C995.805 520.893 998.808 519.428 1001.74 517.963L1002.91 518.695C1002.86 521.527 1002.76 524.97 1002.62 529.022L1002.32 537.812C1007.16 537.763 1010.77 537.738 1013.16 537.738C1017.17 537.738 1020.12 537.689 1022.03 537.592L1022.46 538.324C1021.68 539.643 1020.95 540.961 1020.27 542.279L1019.32 542.865L1002.32 542.499V570.917C1002.32 583.075 1002.52 590.521 1002.91 593.256C1003.84 599.555 1007.23 602.704 1013.09 602.704C1015.43 602.704 1018.46 601.898 1022.17 600.287L1023.2 600.507L1023.86 601.605L1023.49 602.484C1018.51 605.756 1013.04 607.392 1007.08 607.392C999.809 607.392 995.39 604.706 993.827 599.335C993.144 596.796 992.802 592.353 992.802 586.005C992.802 585.272 992.924 580.341 993.168 571.21V542.646ZM1082.82 563.446H1043.92C1040.17 563.446 1037.94 563.739 1037.26 564.325C1036.48 565.106 1036.09 566.767 1036.09 569.306C1036.09 576.581 1038.43 583.222 1043.12 589.228C1048.88 596.552 1056.57 600.214 1066.19 600.214C1071.32 600.214 1075.42 599.311 1078.5 597.504C1079.08 597.162 1080.4 596.186 1082.45 594.574L1083.33 594.428L1084.21 595.087L1084.35 596.039C1081.42 599.994 1079.01 602.997 1077.1 605.048L1076.15 605.78C1072.05 607.099 1067.73 607.758 1063.19 607.758C1052.64 607.758 1044.29 604.755 1038.14 598.749C1031.25 592.06 1027.81 583.026 1027.81 571.649C1027.81 560.077 1031.3 550.873 1038.29 544.037C1043.75 538.666 1050.98 535.98 1059.96 535.98C1069.49 535.98 1076.35 539.105 1080.55 545.355C1083.04 549.018 1084.28 553.168 1084.28 557.807C1084.28 558.93 1084.13 560.395 1083.84 562.201L1082.82 563.446ZM1037.04 558.905C1042.26 559.296 1048.37 559.491 1055.35 559.491C1066.73 559.491 1072.78 559.32 1073.51 558.979C1074.44 558.539 1074.91 557.611 1074.91 556.195C1074.91 551.557 1073.29 547.748 1070.07 544.77C1066.9 541.742 1062.82 540.229 1057.84 540.229C1052.57 540.229 1048.08 541.889 1044.36 545.209C1040.65 548.529 1038.21 553.095 1037.04 558.905Z" fill="black"/>
<path d="M582.882 737.996V736.751L583.688 736.165C584.664 736.067 585.372 736.019 585.812 736.019C586.886 736.019 589.083 736.214 592.403 736.604C594.845 736.897 596.896 737.044 598.556 737.044C600.704 737.044 603.756 736.8 607.711 736.312C609.371 736.116 610.714 736.019 611.739 736.019C612.276 736.019 613.106 736.067 614.229 736.165L614.815 736.824V738.069L614.156 738.729C610.104 739.119 607.516 740.34 606.393 742.391C605.074 743.562 604.391 753.89 604.342 773.372V787.801C604.342 798.934 604.537 806.673 604.928 811.019C605.318 815.364 606.197 819.271 607.564 822.737C609.713 828.206 613.546 832.332 619.063 835.115C623.897 837.605 629.415 838.851 635.616 838.851C644.552 838.851 651.925 836.385 657.735 831.453C662.765 827.107 665.792 821.126 666.817 813.509C667.501 808.87 667.843 799.788 667.843 786.263V773.079C667.843 763.265 667.574 756.185 667.037 751.839C666.549 747.493 665.646 744.417 664.327 742.61C662.472 740.12 659.371 738.826 655.025 738.729L654.366 738.069V736.751L655.099 736.092C656.026 736.043 656.71 736.019 657.149 736.019C657.979 736.019 660.104 736.214 663.521 736.604C665.963 736.849 668.307 736.971 670.553 736.971C672.115 736.971 674.85 736.775 678.756 736.385C680.367 736.189 681.563 736.092 682.345 736.092C683.077 736.092 683.712 736.092 684.249 736.092L684.908 736.897V738.069L684.322 738.729C682.125 738.924 680.465 739.363 679.342 740.047C678.219 740.73 677.218 741.902 676.339 743.562C675.362 745.516 674.703 748.396 674.361 752.205C674.068 755.965 673.922 762.752 673.922 772.566V786.116C673.922 797.347 673.873 804.134 673.775 806.478C673.727 808.772 673.482 811.312 673.043 814.095C671.578 823.616 667.696 830.818 661.397 835.701C654.171 841.365 644.771 844.197 633.199 844.197C616.402 844.197 605.074 839.217 599.215 829.256C596.969 825.398 595.553 820.003 594.967 813.069C594.82 811.36 594.747 802.986 594.747 787.947V773.299C594.649 754.646 593.844 744.295 592.33 742.244C591.158 740.145 588.229 738.973 583.541 738.729L582.882 737.996ZM699.85 828.377C701.852 828.377 703.463 829.061 704.684 830.428C705.904 831.746 706.515 833.479 706.515 835.628C706.515 837.825 705.88 839.607 704.61 840.975C703.341 842.293 701.656 842.952 699.557 842.952C697.506 842.952 695.895 842.293 694.723 840.975C693.6 839.656 693.038 837.85 693.038 835.555C693.038 833.406 693.648 831.673 694.869 830.354C696.139 829.036 697.799 828.377 699.85 828.377ZM784.737 801.57C782.198 801.424 774.557 801.326 761.812 801.277C753.316 801.326 748.287 801.424 746.725 801.57C745.211 801.668 744.112 802.01 743.429 802.596C742.745 803.182 742.135 804.207 741.598 805.672C741.061 807.088 739.767 811.092 737.716 817.684C735.519 824.91 734.42 829.842 734.42 832.479C734.42 834.725 735.25 836.385 736.91 837.459C738.619 838.533 741.451 839.192 745.406 839.437L746.065 840.022L745.992 841.268L745.406 842C744.234 842.098 743.38 842.146 742.843 842.146C741.085 842.146 738.058 841.878 733.761 841.341C732.052 841.097 730.807 840.975 730.025 840.975C729.342 840.975 728.072 841.146 726.217 841.487C723.092 842.024 720.528 842.293 718.526 842.293C718.087 842.293 717.33 842.269 716.256 842.22L715.45 841.634V840.169L716.109 839.51C718.795 839.266 720.846 838.362 722.262 836.8C723.775 835.091 725.362 832.234 727.022 828.23C728.731 824.178 731.563 816.463 735.519 805.086C737.276 799.959 741.134 789.485 747.091 773.665C751.241 762.532 754.171 754.622 755.88 749.935C757.833 744.71 759.444 740.486 760.714 737.264L761.666 736.604C764.107 735.823 766.671 735.042 769.356 734.261L770.235 734.7C771.407 737.728 774.679 746.541 780.05 761.141L789.718 787.581L799.752 814.314C803.707 824.91 806.612 831.648 808.468 834.529C810.372 837.361 812.984 838.973 816.305 839.363L816.891 840.022V841.341L816.158 842C815.23 842.049 814.547 842.073 814.107 842.073C812.447 842.073 809.64 841.829 805.685 841.341C804.269 841.146 802.95 841.048 801.729 841.048C800.509 841.048 798.092 841.268 794.479 841.707C791.793 842 789.327 842.146 787.081 842.146C786.251 842.146 785.274 842.098 784.151 842L783.492 841.414V840.096L784.078 839.363C788.033 839.119 790.792 838.533 792.354 837.605C793.917 836.629 794.698 835.042 794.698 832.845C794.698 829.72 792.623 822.591 788.473 811.458L784.737 801.57ZM745.333 796.297L755.88 796.37L764.889 796.443C768.355 796.443 771.603 796.395 774.63 796.297C776.534 796.248 777.779 796.224 778.365 796.224C780.514 796.175 781.588 795.638 781.588 794.612C781.588 794.026 780.978 791.976 779.757 788.46L771.261 764.51C769.503 759.529 767.11 752.205 764.083 742.537L760.201 753.89L756.026 765.828L745.333 796.297ZM835.055 828.377C837.057 828.377 838.668 829.061 839.889 830.428C841.109 831.746 841.72 833.479 841.72 835.628C841.72 837.825 841.085 839.607 839.815 840.975C838.546 842.293 836.861 842.952 834.762 842.952C832.711 842.952 831.1 842.293 829.928 840.975C828.805 839.656 828.243 837.85 828.243 835.555C828.243 833.406 828.854 831.673 830.074 830.354C831.344 829.036 833.004 828.377 835.055 828.377ZM853.805 841.194V839.949L854.61 839.363C857.296 839.168 859.225 838.558 860.396 837.532C861.568 836.507 862.374 834.749 862.813 832.259C863.546 828.353 863.912 817.269 863.912 799.007V780.403L863.619 762.166C863.473 751.766 862.838 745.247 861.715 742.61C861.129 741.243 860.226 740.315 859.005 739.827C857.833 739.29 855.66 738.924 852.486 738.729L851.754 738.069V736.824L852.34 736.238C853.365 736.092 854.195 736.019 854.83 736.019C855.416 736.019 857.247 736.165 860.323 736.458C863.839 736.8 868.6 736.971 874.605 736.971C882.125 736.971 894.015 736.702 910.274 736.165C912.13 736.116 913.766 736.092 915.182 736.092C916.354 736.092 917.721 736.116 919.283 736.165L920.528 737.41L920.748 741.878C920.992 746.028 921.212 750.374 921.407 754.915L920.895 755.794L919.503 755.94L918.331 755.354C917.647 749.837 915.646 746.102 912.325 744.148C909.005 742.195 902.975 741.219 894.234 741.219C883.541 741.219 877.315 741.854 875.558 743.123C874.581 743.807 873.995 745.467 873.8 748.104C873.604 750.74 873.507 758.895 873.507 772.566V780.037C875.802 780.232 878.805 780.33 882.516 780.33C893.795 780.33 900.606 779.866 902.95 778.938C905.343 778.011 906.856 775.252 907.491 770.662L908.297 769.93H910.128L910.86 770.735C910.665 772.444 910.396 774.251 910.055 776.155C909.713 778.06 909.542 780.184 909.542 782.527C909.542 783.357 909.762 785.726 910.201 789.632C910.494 792.562 910.641 794.466 910.641 795.345C910.641 795.784 910.616 796.492 910.567 797.469L909.688 798.201H908.37L907.491 797.469C907.442 797.029 907.296 796.028 907.052 794.466C906.71 792.22 906.246 790.608 905.66 789.632C905.074 788.655 904.122 787.825 902.804 787.142C900.167 785.774 894.576 785.091 886.031 785.091C879.879 785.091 876.119 785.481 874.752 786.263C874.166 786.604 873.8 787.166 873.653 787.947C873.556 788.68 873.507 790.828 873.507 794.393V805.965V813.436C873.897 822.908 874.166 828.523 874.312 830.281C874.508 831.99 874.923 833.235 875.558 834.017C876.339 835.042 878.121 835.774 880.904 836.214C883.736 836.653 888.058 836.873 893.868 836.873C901.827 836.873 907.955 836.312 912.252 835.188C917.428 833.87 921.334 829.524 923.971 822.151L924.85 821.565L926.314 821.932L926.9 822.884C926.607 824.739 926.021 827.376 925.143 830.794C924.459 833.724 923.702 837.19 922.872 841.194L921.92 842.073C921.236 842.073 920.65 842.073 920.162 842.073L916.646 842.146C915.23 842.146 913.375 842.098 911.08 842C903.268 841.658 892.013 841.487 877.315 841.487C869.454 841.487 863.863 841.609 860.543 841.854C858.639 842 857.442 842.073 856.954 842.073C856.319 842.073 855.465 842.049 854.391 842L853.805 841.194Z" fill="black"/>
<line x1="421" y1="664" x2="1091" y2="664" stroke="black" stroke-width="10"/>
</g>
<defs>
<clipPath id="clip0_1003_2488">
<rect width="1431" height="960" fill="white"/>
</clipPath>
</defs>
</svg>
