<svg width="18" height="15" viewBox="0 0 18 15" fill="none" xmlns="http://www.w3.org/2000/svg">
<g clip-path="url(#clip0_1097_3660)">
<g clip-path="url(#clip1_1097_3660)">
<g clip-path="url(#clip2_1097_3660)">
<mask id="mask0_1097_3660" style="mask-type:luminance" maskUnits="userSpaceOnUse" x="0" y="0" width="18" height="15">
<path d="M17.5 0.429932H0V14.2457H17.5V0.429932Z" fill="white"/>
</mask>
<g mask="url(#mask0_1097_3660)">
<path d="M16.2752 6.09191V1.46987C16.2749 1.19411 16.1641 0.929781 15.9668 0.73479C15.7696 0.539958 15.5022 0.430241 15.2233 0.429932H2.27646C1.99752 0.430241 1.73016 0.539958 1.53293 0.73479C1.33569 0.929778 1.22487 1.1941 1.22456 1.46987V6.09191C0.870485 6.20207 0.561003 6.42076 0.340769 6.71619C0.120685 7.01177 0.00140653 7.36877 0 7.73583V11.5521C0.000313084 11.736 0.0741974 11.9122 0.205681 12.0422C0.337167 12.1721 0.515457 12.2453 0.701251 12.2454H1.12421V13.5525C1.12437 13.7363 1.19841 13.9126 1.32989 14.0425C1.46138 14.1724 1.63951 14.2455 1.82546 14.2457H2.87531C3.0611 14.2455 3.2394 14.1724 3.37088 14.0425C3.50236 13.9126 3.57624 13.7363 3.57656 13.5525V12.2454H13.9232V13.5525C13.9235 13.7363 13.9973 13.9126 14.1289 14.0425C14.2603 14.1724 14.4386 14.2455 14.6244 14.2457H15.6743C15.8602 14.2455 16.0385 14.1724 16.1698 14.0424C16.3013 13.9126 16.3754 13.7363 16.3755 13.5525V12.2454H16.7987C16.9847 12.2453 17.1628 12.1721 17.2943 12.0422C17.4258 11.9122 17.4997 11.736 17.5 11.5521V7.73583C17.4986 7.36877 17.3793 7.01159 17.1591 6.71602C16.939 6.42062 16.6294 6.20207 16.2752 6.09191ZM1.92584 1.46987C1.92599 1.27845 2.08284 1.12338 2.27647 1.12323H15.2233C15.4169 1.12338 15.5736 1.27845 15.5738 1.46987V6.00278H14.5974C14.639 5.89165 14.6608 5.77434 14.6621 5.65613V4.63413C14.6617 4.35839 14.5507 4.09405 14.3537 3.89907C14.1564 3.70406 13.8891 3.59437 13.6101 3.59419H10.0133C9.73452 3.59437 9.46724 3.70406 9.26993 3.89907C9.07273 4.09405 8.96175 4.35839 8.96143 4.63413V5.65613C8.96268 5.77434 8.98462 5.89165 9.02609 6.00278H8.4737C8.51532 5.89165 8.53708 5.77434 8.53834 5.65613V4.63413C8.53802 4.35839 8.42704 4.09405 8.22981 3.89907C8.03276 3.70406 7.76522 3.59437 7.48644 3.59419H3.88935C3.6104 3.59437 3.34305 3.70406 3.14597 3.89907C2.94872 4.09405 2.83775 4.35839 2.83744 4.63413V5.65613C2.83869 5.77434 2.86045 5.89165 2.90209 6.00278H1.92565L1.92584 1.46987ZM9.66295 5.65613V4.63413C9.66312 4.44271 9.82007 4.28751 10.0136 4.28751H13.6104C13.804 4.28751 13.9609 4.44271 13.9609 4.63413V5.65613C13.9609 5.84741 13.804 6.0026 13.6104 6.00278H10.0136C9.82007 6.0026 9.66312 5.84741 9.66295 5.65613ZM3.53914 5.65613V4.63413C3.53929 4.44271 3.69615 4.28751 3.88978 4.28751H7.48688C7.68049 4.28751 7.83735 4.44271 7.83749 4.63413V5.65613C7.83735 5.84741 7.68049 6.0026 7.48688 6.00278H3.88978C3.69615 6.0026 3.53929 5.84741 3.53914 5.65613ZM2.87623 13.5525H1.82574V12.2454H2.87559L2.87623 13.5525ZM15.6752 13.5525H14.6246V12.2454H15.6744L15.6752 13.5525ZM16.7994 11.5521H0.701321V10.0674H16.7986L16.7994 11.5521ZM0.701321 9.37415V7.73583C0.701633 7.46006 0.812612 7.19572 1.00984 7.00074C1.20692 6.80576 1.47444 6.69604 1.75321 6.69589H15.7468C16.0257 6.69604 16.2931 6.80576 16.4903 7.00074C16.6874 7.19572 16.7983 7.46006 16.7987 7.73583V9.37415H0.701321Z" fill="#5C727D"/>
</g>
</g>
</g>
</g>
<defs>
<clipPath id="clip0_1097_3660">
<rect y="0.429932" width="17.5" height="14" rx="5" fill="white"/>
</clipPath>
<clipPath id="clip1_1097_3660">
<rect width="17.5" height="14" fill="white" transform="translate(0 0.429932)"/>
</clipPath>
<clipPath id="clip2_1097_3660">
<rect width="17.5" height="14" fill="white" transform="translate(0 0.429932)"/>
</clipPath>
</defs>
</svg>
