<svg width="11" height="14" viewBox="0 0 11 14" fill="none" xmlns="http://www.w3.org/2000/svg">
<g clip-path="url(#clip0_1097_3644)">
<path d="M8.74681 9.17996C9.28363 9.17996 9.74252 9.36629 10.1235 9.73896C10.5045 10.1116 10.6949 10.571 10.6949 11.117C10.6949 11.663 10.5045 12.1266 10.1235 12.508C9.74252 12.8893 9.28363 13.08 8.74681 13.08C8.21 13.08 7.75111 12.8893 7.37014 12.508C6.98917 12.1266 6.79869 11.6673 6.79869 11.13C6.79869 11.078 6.80302 11.0173 6.81168 10.948C6.82033 10.8786 6.82466 10.8266 6.82466 10.792L3.44791 8.76396C3.08426 9.04129 2.68598 9.17996 2.25306 9.17996C1.71624 9.17996 1.25735 8.98929 0.876382 8.60796C0.495415 8.22662 0.304932 7.76729 0.304932 7.22996C0.304932 6.69262 0.495415 6.23329 0.876382 5.85196C1.25735 5.47062 1.71624 5.27996 2.25306 5.27996C2.72061 5.27996 3.11889 5.40996 3.44791 5.66996L6.82466 3.64196C6.82466 3.60729 6.82033 3.55529 6.81168 3.48596C6.80302 3.41662 6.79869 3.36462 6.79869 3.32996C6.79869 2.79262 6.98917 2.33329 7.37014 1.95196C7.75111 1.57062 8.21 1.37996 8.74681 1.37996C9.28363 1.37996 9.74252 1.56629 10.1235 1.93896C10.5045 2.31162 10.6949 2.77096 10.6949 3.31696C10.6949 3.86296 10.5045 4.32662 10.1235 4.70796C9.74252 5.08929 9.28363 5.27996 8.74681 5.27996C8.29658 5.27996 7.90696 5.14129 7.57794 4.86396L4.17521 6.89196C4.19253 6.96129 4.20119 7.06962 4.20119 7.21696C4.20119 7.36429 4.19253 7.47262 4.17521 7.54196L7.57794 9.56996C7.88964 9.30996 8.27926 9.17996 8.74681 9.17996Z" fill="white"/>
</g>
<defs>
<clipPath id="clip0_1097_3644">
<rect width="10.4" height="13" fill="white" transform="matrix(1 0 0 -1 0.300049 13.73)"/>
</clipPath>
</defs>
</svg>
